# xmcd CD database file
#
# Track frame offsets:
#	150
#	20410
#	34517
#	46580
#	62110
#	74172
#	87305
#	102087
#	116072
#	129202
#	145825
#	156917
#	168945
#	182040
#	196307
#	212472
#	225000
#	241207
#	256527
#	273037
#	289615
#	301920
#	315910
#
# Disc length: 4369 seconds
#
# Revision: 0
# Processed by: cddbd v1.5.2PL0 Copyright (c) Steve Scherf et al.
# Submitted via: CDex 1.70beta2
#
DISCID=23110f17
DTITLE=ChartBreakers - ChartBreakers CGC-537
DYEAR=1900
DGENRE=Country
TTITLE0=Nitty Gritty Dirt Band - Stand A Little Rain
TTITLE1=Merle Haggard - My Favorite Memory
TTITLE2=Ronnie McDowell - Older Woman
TTITLE3=Olivia Newton-John - Please Mister Please
TTITLE4=Conway Twitty - Don't Call Him A Cowboy
TTITLE5=Anne Murray - He Thinks I Still Care
TTITLE6=Forrester Sisters - I Fell In Love Again Last Night
TTITLE7=Oak Ridge Boys - Leaving Louisiana In The Broad Daylight
TTITLE8=Restless Heart - Mending Fences
TTITLE9=Eddie Rabbitt - Step By Step
TTITLE10=Ronnie Milsap - Pure Love
TTITLE11=Johnny Cash - Ring Of Fire
TTITLE12=Tanya Tucker - San Antonio Stroll
TTITLE13=Nitty Gritty Dirt Band - Down That Road Tonight
TTITLE14=Dwight Yoakam - I Got You
TTITLE15=Ricky Skaggs - Let It Be You
TTITLE16=Nitty Gritty Dirt Band - Modern Day Romance
TTITLE17=Sylvia - Nobody
TTITLE18=Vince Gill - Oklahoma Borderline
TTITLE19=Charlie Daniels - Devil Went Down To Georgia
TTITLE20=Charlie Rich - Rollin' With The Flow
TTITLE21=Patsy Cline - She's Got You
TTITLE22=Johnny Paycheck - Take This Job And Shove It
EXTD=YEAR: 1900
EXTT0=
EXTT1=
EXTT2=
EXTT3=
EXTT4=
EXTT5=
EXTT6=
EXTT7=
EXTT8=
EXTT9=
EXTT10=
EXTT11=
EXTT12=
EXTT13=
EXTT14=
EXTT15=
EXTT16=
EXTT17=
EXTT18=
EXTT19=
EXTT20=
EXTT21=
EXTT22=
PLAYORDER=
